# xmcd
# 
# Track frame offsets:
#     150
#     12162
#     25292
#     38227
#     56557
#     70460
#     95590
#     109132
#     123042
#     134837
#     146655
#     161172
#     172970
#     185442
#     198697
#     210125
#     223152
#     235690
# 
# Disc length: 3330
# 
# Revision: 4
# Processed by: cddbd v1.5.2PL0 Copyright (c) Steve Scherf et al.
# Submitted via: BonkEnc v1.0beta4
# 
DISCID=0a0d0012
DTITLE=Soul Music Collection - 5. - Il Soul Incontra Il Pop, La Motown
DYEAR=0
DGENRE=
TTITLE0=Martha and The Vandellas - Dancing In The Streets
TTITLE1=Stevie Wonder - Uptight (Everything's Alright)
TTITLE2=The Supremes - You Can't Hurry Love
TTITLE3=The Temptations - Ball Of Confusion (That's What The World Is Today)
TTITLE4=Stevie Wonder - Yester-me, Yester-you, Yesterday
TTITLE5=Diana Ross - Reach Out, I'll Be There
TTITLE6=Jr. Walker and The All Stars - Shotgun
TTITLE7=Smokey Robinson and The Miracles - The Tears Of A Clown
TTITLE8=The Supremes - Baby Love
TTITLE9=Barret Strong - Money (That's What I Want)
TTITLE10=Shorty Long - Devil With the Blue Dress
TTITLE11=Stevie Wonder - I Was Made To Love Her
TTITLE12=Four Tops - I Can't Help Myself (Sugar Pie Honey Bunch)
TTITLE13=The Temptations - My Girl
TTITLE14=The Velvettes - He Was Really Sayin' Something
TTITLE15=The Contours - Do You Love Me
TTITLE16=Martha and The Vandellas - (Love Is Like A) Heat Wave
TTITLE17=The Spinners - It's A Shame
EXTD=by David K. (Opatija City) - Croatia
EXTT0=
EXTT1=
EXTT2=
EXTT3=
EXTT4=
EXTT5=
EXTT6=
EXTT7=
EXTT8=
EXTT9=
EXTT10=
EXTT11=
EXTT12=
EXTT13=
EXTT14=
EXTT15=
EXTT16=
EXTT17=
PLAYORDER=
